<?xml version="1.0" encoding="iso-8859-1"?>
<!-- Uploaded to: SVG Repo, www.svgrepo.com, Generator: SVG Repo Mixer Tools -->
<!DOCTYPE svg PUBLIC "-//W3C//DTD SVG 1.1//EN" "http://www.w3.org/Graphics/SVG/1.1/DTD/svg11.dtd">
<svg height="800px" width="800px" version="1.1" id="Capa_1" xmlns="http://www.w3.org/2000/svg" xmlns:xlink="http://www.w3.org/1999/xlink" 
	 viewBox="0 0 259.555 259.555" xml:space="preserve">
<g>
	<path style="fill:#222220;" d="M107.93,1.336H7.5c-4.143,0-7.5,3.357-7.5,7.5v100.43c0,4.143,3.357,7.5,7.5,7.5h100.43
		c4.143,0,7.5-3.357,7.5-7.5V8.836C115.43,4.693,112.072,1.336,107.93,1.336z M100.43,101.766H15v-85.43h85.43V101.766z"/>
	<path style="fill:#222220;" d="M252.055,1.336h-100.43c-4.143,0-7.5,3.357-7.5,7.5v100.43c0,4.143,3.357,7.5,7.5,7.5h100.43
		c4.143,0,7.5-3.357,7.5-7.5V8.836C259.555,4.693,256.197,1.336,252.055,1.336z M244.555,101.766h-85.43v-85.43h85.43V101.766z"/>
	<path style="fill:#222220;" d="M107.93,142.789H7.5c-4.143,0-7.5,3.357-7.5,7.5v100.43c0,4.143,3.357,7.5,7.5,7.5h100.43
		c4.143,0,7.5-3.357,7.5-7.5v-100.43C115.43,146.146,112.072,142.789,107.93,142.789z M100.43,243.219H15v-85.43h85.43V243.219z"/>
	<path style="fill:#222220;" d="M252.055,142.789h-100.43c-4.143,0-7.5,3.357-7.5,7.5v100.43c0,4.143,3.357,7.5,7.5,7.5h100.43
		c4.143,0,7.5-3.357,7.5-7.5v-100.43C259.555,146.146,256.197,142.789,252.055,142.789z M244.555,243.219h-85.43v-85.43h85.43
		V243.219z"/>
</g>
</svg>